<?xml version="1.0" standalone="no"?><!DOCTYPE svg PUBLIC "-//W3C//DTD SVG 1.1//EN" "http://www.w3.org/Graphics/SVG/1.1/DTD/svg11.dtd"><svg t="1677603789100" class="icon" viewBox="0 0 1114 1024" version="1.1" xmlns="http://www.w3.org/2000/svg" p-id="2962" xmlns:xlink="http://www.w3.org/1999/xlink" width="217.578125" height="200"><path d="M297.135476 1024H72.320931A86.109091 86.109091 0 0 1 1.106385 925.323636l5.585455-34.443636a1050.065455 1050.065455 0 0 0 11.636364-153.134545v-83.316364-37.236364A512 512 0 0 1 201.717295 279.272727a402.152727 402.152727 0 0 1 293.701818-101.934545 46.545455 46.545455 0 0 1 42.356363 46.545454v46.545455a46.545455 46.545455 0 0 1-93.090909 0A328.610909 328.610909 0 0 0 261.760931 351.418182a413.789091 413.789091 0 0 0-148.014546 273.687273v112.64a1055.185455 1055.185455 0 0 1-13.032727 167.098181L94.197295 930.909091h202.938181c72.610909 0 142.429091-81.454545 143.825455-168.029091l3.723636-131.258182a46.545455 46.545455 0 1 1 93.090909 0l-3.723636 130.792727C531.724567 902.516364 420.015476 1024 297.135476 1024z" fill="#0054c9" p-id="2963" data-spm-anchor-id="a313x.7781069.0.i6" class=""></path><path d="M313.89184 536.203636a46.545455 46.545455 0 1 1 0-93.090909c130.792727 0 130.792727-62.370909 130.792727-85.643636V46.545455a46.545455 46.545455 0 0 1 93.090909 0v310.923636c0 111.709091-83.781818 178.734545-223.883636 178.734545zM1029.760931 1024h-211.781818c-123.810909 0-232.727273-121.483636-236.916364-259.723636l-3.258182-130.327273a46.545455 46.545455 0 0 1 46.545455-46.545455 46.545455 46.545455 0 0 1 46.545454 46.545455l3.258182 130.792727C675.550022 849.454545 745.833658 930.909091 817.979113 930.909091h202.007272l-4.18909-26.065455a1112.436364 1112.436364 0 0 1-12.567273-167.098181v-83.316364-29.323636a412.392727 412.392727 0 0 0-148.48-273.687273 325.818182 325.818182 0 0 0-182.458182-80.523637 46.545455 46.545455 0 0 1-93.090909 0v-46.545454a46.545455 46.545455 0 0 1 42.356364-46.545455A401.687273 401.687273 0 0 1 913.397295 279.272727a506.88 506.88 0 0 1 181.061818 336.989091 325.818182 325.818182 0 0 1 0 37.236364v83.316363a993.28 993.28 0 0 0 11.636363 153.134546l5.12 34.443636a85.178182 85.178182 0 0 1-69.818181 97.745455z" fill="#0054c9" p-id="2964" data-spm-anchor-id="a313x.7781069.0.i1" class=""></path><path d="M801.688204 536.203636c-139.636364 0-223.883636-67.025455-223.883637-178.734545V46.545455a46.545455 46.545455 0 0 1 93.090909 0v310.923636c0 23.272727 0 85.643636 130.792728 85.643636a46.545455 46.545455 0 0 1 0 93.090909z" fill="#0054c9" p-id="2965" data-spm-anchor-id="a313x.7781069.0.i8" class=""></path><path d="M779.346385 691.2A403.083636 403.083636 0 0 1 559.65184 622.778182a333.265455 333.265455 0 0 1-222.952727 68.421818 46.545455 46.545455 0 1 1 0-93.090909c88.901818 0 149.410909-22.807273 186.181818-69.818182a46.545455 46.545455 0 0 1 74.472727 0c42.821818 56.785455 147.549091 69.818182 186.181818 69.818182a46.545455 46.545455 0 0 1 46.545455 46.545454 46.545455 46.545455 0 0 1-50.734546 46.545455z" fill="#6ba4f4" p-id="2966" data-spm-anchor-id="a313x.7781069.0.i5" class=""></path></svg>