<?xml version="1.0" standalone="no"?><!DOCTYPE svg PUBLIC "-//W3C//DTD SVG 1.1//EN" "http://www.w3.org/Graphics/SVG/1.1/DTD/svg11.dtd"><svg t="1677604330910" class="icon" viewBox="0 0 1031 1024" version="1.1" xmlns="http://www.w3.org/2000/svg" p-id="15670" xmlns:xlink="http://www.w3.org/1999/xlink" width="201.3671875" height="200"><path d="M879.75 149.875C782.375 53.25 653 0 515.25 0s-267.125 53.25-364.375 149.875S0 375.25 0 512s53.625 265.375 150.875 362.125S377.625 1024 515.25 1024c137.75 0 267.25-53.25 364.5-150C1080.625 674.375 1080.625 349.625 879.75 149.875zM832.25 826.75C747.625 910.875 635 957.25 515.25 957.25c-119.75 0-232.25-46.375-316.875-130.375-84.625-84.125-131.25-195.875-131.25-314.875s46.75-230.75 131.25-314.875c84.75-84.125 197.25-130.375 316.875-130.375s232.25 46.25 316.875 130.375C1006.875 370.75 1006.875 653.25 832.25 826.75z" fill="#555555" p-id="15671" data-spm-anchor-id="a313x.7781069.0.i26" class="selected"></path><path d="M331.625 321.125c-34.75 0-63.125 28.125-63.125 62.75s28.25 62.75 63.125 62.75c34.875 0 63.125-28.125 63.125-62.75C394.75 349.125 366.5 321.125 331.625 321.125L331.625 321.125 331.625 321.125 331.625 321.125 331.625 321.125z" fill="#555555" p-id="15672" data-spm-anchor-id="a313x.7781069.0.i29" class="selected"></path><path d="M698.75 321.125c-34.75 0-63.125 28.125-63.125 62.75S663.875 446.5 698.75 446.5c34.875 0 63.125-28.125 63.125-62.75C761.875 349.125 733.625 321.125 698.75 321.125L698.75 321.125 698.75 321.125 698.75 321.125 698.75 321.125z" fill="#555555" p-id="15673" data-spm-anchor-id="a313x.7781069.0.i28" class="selected"></path><path d="M761.5 736.25l-492.5 0c-15.875 0-28.75-12.875-28.75-28.75s12.875-28.75 28.75-28.75l492.5 0c15.875 0 28.75 12.875 28.75 28.75S777.375 736.25 761.5 736.25z" fill="#555555" p-id="15674" data-spm-anchor-id="a313x.7781069.0.i27" class="selected"></path></svg>