<?xml version="1.0" standalone="no"?><!DOCTYPE svg PUBLIC "-//W3C//DTD SVG 1.1//EN" "http://www.w3.org/Graphics/SVG/1.1/DTD/svg11.dtd"><svg t="1677604404445" class="icon" viewBox="0 0 1024 1024" version="1.1" xmlns="http://www.w3.org/2000/svg" p-id="21196" xmlns:xlink="http://www.w3.org/1999/xlink" width="200" height="200"><path d="M943.1 142.9c-2.9-22.9-5.5-42.6-6.6-57-0.8-10.6-8.6-19.4-19-21.6-10.4-2.2-21 2.7-26.1 12.1-0.7 1.2-5.4 7.8-32.3 22.3-20.6 11-47.5 23.2-78.7 37.3-62.4 28.2-140.1 63.3-207.5 108.5-81.8 54.8-131.8 113-152.7 177.9-1.2 3.6-2.3 7.2-3.3 10.9-17.2-18.9-42.7-44.6-74.8-70-36.2-28.6-73.3-51-110.3-66.6-47.2-19.8-94.4-28.6-140.2-26.1-6.6 0.4-12.8 3.4-17 8.5-4.3 5.1-6.2 11.6-5.5 18.2 1.7 14.7 0.2 39.6-1.5 68.5-3.1 52.4-7 117.5 2.6 185 5.3 37.4 14.4 71.7 26.9 102 14.8 35.6 35.1 67 60.2 93.4 33.9 35.6 77.7 62.9 130 81 51.7 18 113.1 27.5 182.9 28.4 0.5 23.4-4.2 47.5-14.2 72-5 12.3 0.9 26.3 13.2 31.3 3 1.2 6 1.8 9 1.8 9.5 0 18.4-5.6 22.2-14.9 13.8-33.8 18.1-64.1 17.7-89.7 71.3-0.3 134.8-10.6 189.1-30.6 56.4-20.8 104.2-52.5 142-94.2 35.2-38.8 62.4-87.1 80.8-143.5 15.5-47.3 25.3-101.5 29-161.2 6.8-107.8-6.9-213.6-15.9-283.7z m-751.2 570c-91.3-95.7-82.4-245.3-76.5-344.3 1.1-19.1 2.1-35.8 2.3-50.2 78.1 3.6 147.5 45.4 193.6 81.8 56.5 44.5 91.8 91.1 92.2 91.6l0.6-0.4c-4.3 28.2-5.9 57.4-5 87.3 1.4 43.6 8.3 88.7 20.6 134.1 10.6 39.1 23.2 71.5 33.3 94.3-117.8-4.4-205.5-36-261.1-94.2z m621.7-14.2c-59.6 65.8-148.1 102-263.5 108.1-8.3 0.6-15.9 0.9-22.2 1-1.4-39.9 2.2-168.9 93.1-292.4 89.8-122 188.7-184.8 189.7-185.4 11.2-7 14.7-21.8 7.6-33.1-7-11.2-21.8-14.7-33.1-7.6-4.3 2.7-107.3 67.9-202.9 197.7-62.6 85-86.8 172.1-96.2 230.2-1.9 11.9-3.3 23.1-4.3 33.5-0.5-1.5-1.1-3-1.6-4.7v-0.1c-4.9-13.7-9.8-29.1-14.3-45.7-6.9-25.6-13.3-56.3-16.7-90.2-0.7-4.8-1-7.4-1-7.4s0.1-0.1 0.3-0.4c-4.2-50.7-1.2-107.9 17.2-165.1 17.5-54.2 61.3-104.2 133.8-152.8 64.2-43 139.8-77.2 200.6-104.6 40.7-18.4 71.4-32.5 93.5-45.4 0.6 4.8 1.2 9.7 1.9 14.8 18.1 140.5 51.8 402-81.9 549.6z" p-id="21197" data-spm-anchor-id="a313x.7781069.0.i31" class="" fill="#555555"></path></svg>