<?xml version="1.0" standalone="no"?><!DOCTYPE svg PUBLIC "-//W3C//DTD SVG 1.1//EN" "http://www.w3.org/Graphics/SVG/1.1/DTD/svg11.dtd"><svg t="1677604035577" class="icon" viewBox="0 0 1024 1024" version="1.1" xmlns="http://www.w3.org/2000/svg" p-id="5864" xmlns:xlink="http://www.w3.org/1999/xlink" width="200" height="200"><path d="M583 591.3a31.53 31.53 0 0 1-19.54-6.79l-58-45.77h-50.85a31.54 31.54 0 0 1-29-19.22l-30.39-71.64L366.6 519a31.53 31.53 0 0 1-29.26 19.77H94.87a31.53 31.53 0 1 1 0-63.07H316l49.11-122.13a31.53 31.53 0 0 1 29-19.77 31.12 31.12 0 0 1 29.32 19.2l52.06 122.69h40.94a31.54 31.54 0 0 1 19.57 6.77l33.8 26.7 42.71-103.34a31.54 31.54 0 0 1 54.44-6.8L724 475.68h151.44a31.53 31.53 0 1 1 0 63.07H708.19A31.56 31.56 0 0 1 682.9 526l-33.35-44.78-37.42 90.54A31.56 31.56 0 0 1 583 591.3z" fill="#6ba4f4" p-id="5865" data-spm-anchor-id="a313x.7781069.0.i16" class=""></path><path d="M527.482 815.78l285.077-285.077 44.59 44.59-285.077 285.078zM144.48 420.85a233.23 233.23 0 0 1 63.8-209.35c43.86-43.87 102.4-68 164.84-68s121 24.16 164.84 68l57.7 53.5-42.91 46.21-58.55-54.31c-32.81-32.78-75.51-50.37-121.09-50.37a169.43 169.43 0 0 0-166.69 202.39z" fill="#0054c9" p-id="5866" data-spm-anchor-id="a313x.7781069.0.i15" class=""></path><path d="M281.783 614.676l44.59-44.59 268.036 268.036-44.59 44.59zM857.16 575.3l-44.59-44.59 34.13-34.13a170.05 170.05 0 0 0-240.49-240.49l-34.13 34.13-44.59-44.59 34.13-34.13c43.87-43.88 102.41-68 164.84-68s121 24.17 164.84 68 68 102.4 68 164.84-24.16 121-68 164.84z" fill="#0054c9" p-id="5867" data-spm-anchor-id="a313x.7781069.0.i14" class=""></path></svg>