<?xml version="1.0" standalone="no"?><!DOCTYPE svg PUBLIC "-//W3C//DTD SVG 1.1//EN" "http://www.w3.org/Graphics/SVG/1.1/DTD/svg11.dtd"><svg t="1677605721415" class="icon" viewBox="0 0 1024 1024" version="1.1" xmlns="http://www.w3.org/2000/svg" p-id="33702" xmlns:xlink="http://www.w3.org/1999/xlink" width="200" height="200"><path d="M336 592h-64c-8.8 0-16 7.2-16 16v64c0 8.8 7.2 16 16 16h64c8.8 0 16-7.2 16-16v-64c0-8.8-7.2-16-16-16zM272 432h64c8.8 0 16-7.2 16-16v-64c0-8.8-7.2-16-16-16h-64c-8.8 0-16 7.2-16 16v64c0 8.8 7.2 16 16 16zM528 432h64c8.8 0 16-7.2 16-16v-64c0-8.8-7.2-16-16-16h-64c-8.8 0-16 7.2-16 16v64c0 8.8 7.2 16 16 16zM400 432h64c8.8 0 16-7.2 16-16v-64c0-8.8-7.2-16-16-16h-64c-8.8 0-16 7.2-16 16v64c0 8.8 7.2 16 16 16zM416 480v64c0 8.8 7.2 16 16 16h64c8.8 0 16-7.2 16-16v-64c0-8.8-7.2-16-16-16h-64c-8.8 0-16 7.2-16 16zM640 544v-64c0-8.8-7.2-16-16-16h-64c-8.8 0-16 7.2-16 16v64c0 8.8 7.2 16 16 16h64c8.8 0 16-7.2 16-16z" p-id="33703" fill="#555555"></path><path d="M512 64C264.6 64 64 264.6 64 512s200.6 448 448 448 448-200.6 448-448S759.4 64 512 64z m0 864C282.6 928 96 741.4 96 512S282.6 96 512 96s416 186.6 416 416-186.6 416-416 416z" p-id="33704" fill="#555555"></path><path d="M752 336h-96c-8.8 0-16 7.2-16 16v64c0 8.8 7.2 16 16 16h96c8.8 0 16-7.2 16-16v-64c0-8.8-7.2-16-16-16zM384 480c0-8.8-7.2-16-16-16h-64c-8.8 0-16 7.2-16 16v64c0 8.8 7.2 16 16 16h64c8.8 0 16-7.2 16-16v-64zM528 592H400c-8.8 0-16 7.2-16 16v64c0 8.8 7.2 16 16 16h128c8.8 0 16-7.2 16-16v-64c0-8.8-7.2-16-16-16zM752 464h-64c-8.8 0-16 7.2-16 16v112h-80c-8.8 0-16 7.2-16 16v64c0 8.8 7.2 16 16 16h160c8.8 0 16-7.2 16-16V480c0-8.8-7.2-16-16-16z" p-id="33705" fill="#555555"></path></svg>