<?xml version="1.0" standalone="no"?><!DOCTYPE svg PUBLIC "-//W3C//DTD SVG 1.1//EN" "http://www.w3.org/Graphics/SVG/1.1/DTD/svg11.dtd"><svg t="1683557552894" class="icon" viewBox="0 0 1088 1024" version="1.1" xmlns="http://www.w3.org/2000/svg" p-id="1532" xmlns:xlink="http://www.w3.org/1999/xlink" width="212.5" height="200"><path d="M862.96 749.248h62.528a37.056 37.056 0 0 1 37.504 36.544v1.728a37.056 37.056 0 0 1-37.504 36.544H825.648a37.056 37.056 0 0 1-37.504-36.544v-101.568a36.416 36.416 0 0 1 18.752-31.68 38.4 38.4 0 0 1 37.504 0 36.416 36.416 0 0 1 18.752 31.68v63.36zM832.048 960a205.504 205.504 0 0 0 192-192 205.504 205.504 0 0 0-192-192 205.504 205.504 0 0 0-192 192 205.504 205.504 0 0 0 192 192z m5.888 64A249.6 249.6 0 1 1 1088.048 774.4a249.92 249.92 0 0 1-250.112 249.6zM64.048 384h896V192a65.088 65.088 0 0 0-64-64h-128v128c0 24.576-62.016 22.848-64 0V128H320.048v128c0 20.096-67.968 22.08-64 0V128H128.048a65.088 65.088 0 0 0-64 64v192z m640-320V0h64v64h128a129.472 129.472 0 0 1 129.472 135.808v249.6L64.048 448v384a65.152 65.152 0 0 0 64 64h384v64H128.048a109.248 109.248 0 0 1-128-110.848V199.808A137.472 137.472 0 0 1 137.584 62.4L256.048 64V0h64v64M192.048 576h192c53.696 0 78.528 64 0 64H192.048c-79.424 0-54.272-64 0-64z m0 192h192c52.352 0 36.928 64 0 64H192.048c-36.928 0-52.352-64 0-64z m0 0" p-id="1533" data-spm-anchor-id="a313x.7781069.0.i0" class="" fill="#bebebe"></path></svg>